<?xml version="1.0" encoding="UTF-8"?>
<svg id="Layer_2" data-name="Layer 2" xmlns="http://www.w3.org/2000/svg" viewBox="0 0 758.31 282.37">
  <defs>
    <style>
      .cls-1 {
        fill: #fff;
      }

      .cls-2 {
        fill: #68743d;
      }

      .cls-3 {
        fill: #d7ceb8;
      }

      .cls-4 {
        fill: #df8433;
      }

      .cls-5 {
        fill: none;
        stroke: #68743d;
        stroke-miterlimit: 10;
        stroke-width: 10px;
      }
    </style>
  </defs>
  <g id="isotipo">
    <g>
      <g>
        <path class="cls-1" d="M305.05,134.4v-50.14h19.89c3.68,0,6.75.56,9.2,1.67,2.46,1.11,4.3,2.63,5.52,4.56,1.22,1.93,1.83,4.15,1.83,6.66,0,1.97-.39,3.7-1.18,5.17-.79,1.47-1.86,2.67-3.21,3.6-1.36.93-2.9,1.6-4.63,2v.5c1.88.07,3.66.6,5.33,1.6,1.67,1,3.03,2.39,4.07,4.17,1.04,1.78,1.57,3.91,1.57,6.38,0,2.65-.65,5.01-1.95,7.1s-3.23,3.73-5.77,4.93c-2.55,1.2-5.72,1.8-9.51,1.8h-21.17ZM315.32,105.33h8.11c1.46,0,2.77-.26,3.94-.79s2.08-1.28,2.74-2.26c.66-.98.99-2.14.99-3.48,0-1.82-.65-3.3-1.94-4.44-1.29-1.14-3.14-1.72-5.54-1.72h-8.31v12.69ZM315.32,125.96h8.88c3.01,0,5.21-.58,6.6-1.75,1.39-1.17,2.09-2.7,2.09-4.61,0-1.41-.34-2.66-1.03-3.75s-1.65-1.94-2.91-2.56c-1.26-.62-2.75-.93-4.48-.93h-9.15v13.6Z"/>
        <path class="cls-1" d="M355.19,91.86c-1.53,0-2.83-.5-3.9-1.51-1.08-1.01-1.62-2.23-1.62-3.67s.54-2.66,1.62-3.67c1.08-1.01,2.38-1.51,3.9-1.51s2.83.5,3.92,1.51c1.09,1.01,1.63,2.23,1.63,3.67s-.54,2.66-1.63,3.67c-1.09,1.01-2.4,1.51-3.92,1.51ZM350.14,134.4v-37.62h10.1v37.62h-10.1Z"/>
        <path class="cls-1" d="M385.37,135.14c-3.77,0-7.03-.81-9.79-2.44-2.76-1.63-4.89-3.89-6.38-6.8-1.49-2.9-2.24-6.29-2.24-10.15s.74-7.31,2.24-10.21c1.49-2.91,3.62-5.17,6.38-6.8,2.76-1.63,6.02-2.44,9.79-2.44s7.06.81,9.81,2.44c2.75,1.63,4.87,3.89,6.36,6.8,1.49,2.91,2.24,6.31,2.24,10.21s-.75,7.24-2.24,10.15c-1.49,2.91-3.61,5.17-6.36,6.8-2.75,1.63-6.02,2.44-9.81,2.44ZM385.37,127.2c1.79,0,3.3-.5,4.51-1.5,1.21-1,2.12-2.37,2.73-4.11.61-1.74.91-3.7.91-5.87s-.3-4.2-.91-5.92c-.6-1.73-1.51-3.09-2.73-4.07s-2.71-1.48-4.51-1.48-3.29.49-4.49,1.48c-1.2.99-2.1,2.35-2.71,4.07s-.91,3.7-.91,5.92.3,4.13.91,5.87c.61,1.74,1.51,3.11,2.71,4.11,1.2,1,2.7,1.5,4.49,1.5Z"/>
        <path class="cls-1" d="M410.53,134.4v-37.62h9.76v6.56h.4c.7-2.33,1.86-4.09,3.48-5.28,1.63-1.19,3.49-1.78,5.6-1.78.52,0,1.08.03,1.68.08.61.06,1.13.14,1.58.25v9.02c-.45-.16-1.1-.28-1.95-.37s-1.66-.13-2.42-.13c-1.53,0-2.9.33-4.14.99-1.23.66-2.19,1.58-2.88,2.76-.68,1.18-1.03,2.55-1.03,4.12v21.4h-10.1Z"/>
        <path class="cls-1" d="M453.64,135.14c-3.84,0-7.15-.79-9.93-2.36s-4.92-3.8-6.41-6.7c-1.49-2.9-2.24-6.33-2.24-10.3s.74-7.28,2.22-10.2c1.48-2.92,3.58-5.19,6.29-6.83s5.9-2.46,9.56-2.46c2.47,0,4.77.39,6.9,1.18,2.13.79,4.01,1.97,5.62,3.55,1.62,1.58,2.88,3.56,3.79,5.94.91,2.38,1.36,5.18,1.36,8.41v2.83h-31.6v-6.33h26.65l-4.71,1.68c0-1.95-.3-3.65-.89-5.1-.59-1.45-1.48-2.57-2.66-3.37-1.18-.8-2.63-1.19-4.36-1.19s-3.24.4-4.46,1.21c-1.22.81-2.15,1.9-2.78,3.28-.63,1.38-.94,2.96-.94,4.73v4.48c0,2.18.36,4,1.09,5.48.73,1.48,1.75,2.59,3.06,3.33,1.31.74,2.84,1.11,4.59,1.11,1.19,0,2.27-.17,3.23-.5.96-.34,1.79-.84,2.47-1.5s1.21-1.48,1.57-2.44l9.15,1.72c-.61,2.07-1.66,3.88-3.16,5.44-1.5,1.56-3.38,2.76-5.64,3.62-2.26.85-4.85,1.28-7.79,1.28Z"/>
        <path class="cls-1" d="M494.15,149.28c-3.14,0-5.88-.4-8.21-1.19-2.33-.8-4.23-1.89-5.69-3.28-1.46-1.39-2.47-2.97-3.03-4.75l8.68-2.42c.31.7.8,1.37,1.46,2.04.66.66,1.54,1.21,2.64,1.63,1.1.43,2.46.64,4.07.64,2.58,0,4.61-.59,6.07-1.77,1.47-1.18,2.21-3.01,2.21-5.5v-6.93h-.77c-.45,1.01-1.1,1.99-1.95,2.93s-1.97,1.71-3.35,2.3c-1.38.6-3.09.89-5.13.89-2.83,0-5.4-.66-7.71-1.99s-4.16-3.34-5.54-6.06c-1.38-2.71-2.07-6.15-2.07-10.3s.7-7.78,2.1-10.63c1.4-2.85,3.26-4.99,5.59-6.43,2.32-1.44,4.87-2.15,7.66-2.15,2.11,0,3.88.35,5.32,1.06,1.44.71,2.6,1.59,3.48,2.66.89,1.07,1.55,2.09,2,3.08h.44v-6.33h9.93v37.32c0,3.39-.78,6.2-2.34,8.45-1.56,2.24-3.71,3.93-6.44,5.05-2.74,1.12-5.88,1.68-9.42,1.68ZM494.32,126.19c1.73,0,3.19-.43,4.39-1.28,1.2-.85,2.11-2.08,2.74-3.68.63-1.6.94-3.53.94-5.77s-.31-4.16-.94-5.82c-.63-1.66-1.54-2.95-2.74-3.87-1.2-.92-2.66-1.38-4.39-1.38s-3.26.48-4.46,1.43-2.11,2.26-2.73,3.92c-.62,1.66-.93,3.57-.93,5.72s.31,4.1.93,5.7c.62,1.6,1.53,2.84,2.74,3.72,1.21.87,2.69,1.31,4.44,1.31Z"/>
        <path class="cls-1" d="M525.74,91.86c-1.53,0-2.83-.5-3.9-1.51-1.08-1.01-1.62-2.23-1.62-3.67s.54-2.66,1.62-3.67c1.08-1.01,2.38-1.51,3.9-1.51s2.83.5,3.92,1.51c1.09,1.01,1.63,2.23,1.63,3.67s-.54,2.66-1.63,3.67c-1.09,1.01-2.4,1.51-3.92,1.51ZM520.7,134.4v-37.62h10.1v37.62h-10.1Z"/>
        <path class="cls-1" d="M555.92,135.14c-3.77,0-7.03-.81-9.79-2.44-2.76-1.63-4.89-3.89-6.38-6.8-1.49-2.9-2.24-6.29-2.24-10.15s.74-7.31,2.24-10.21c1.49-2.91,3.62-5.17,6.38-6.8,2.76-1.63,6.02-2.44,9.79-2.44s7.06.81,9.81,2.44c2.75,1.63,4.87,3.89,6.36,6.8,1.49,2.91,2.24,6.31,2.24,10.21s-.75,7.24-2.24,10.15c-1.49,2.91-3.61,5.17-6.36,6.8-2.75,1.63-6.02,2.44-9.81,2.44ZM555.92,127.2c1.79,0,3.3-.5,4.51-1.5,1.21-1,2.12-2.37,2.73-4.11.61-1.74.91-3.7.91-5.87s-.3-4.2-.91-5.92c-.6-1.73-1.51-3.09-2.73-4.07-1.21-.99-2.71-1.48-4.51-1.48s-3.29.49-4.49,1.48c-1.2.99-2.1,2.35-2.71,4.07s-.91,3.7-.91,5.92.3,4.13.91,5.87c.61,1.74,1.51,3.11,2.71,4.11,1.2,1,2.7,1.5,4.49,1.5Z"/>
        <path class="cls-1" d="M591.19,112.63v21.77h-10.1v-37.62h9.52l.17,9.39h-.61c.99-3.14,2.48-5.57,4.49-7.29,2.01-1.72,4.6-2.57,7.79-2.57,2.6,0,4.87.57,6.82,1.7,1.94,1.13,3.44,2.76,4.51,4.88,1.07,2.12,1.6,4.65,1.6,7.59v23.93h-10.1v-22.18c0-2.33-.6-4.16-1.8-5.49s-2.87-1.99-5-1.99c-1.41,0-2.68.31-3.79.93-1.11.62-1.97,1.51-2.59,2.68-.62,1.17-.93,2.59-.93,4.27Z"/>
        <path class="cls-1" d="M634.22,135.14c-2.38,0-4.51-.42-6.41-1.26-1.9-.84-3.39-2.1-4.48-3.77-1.09-1.67-1.63-3.75-1.63-6.24,0-2.09.39-3.84,1.16-5.25.77-1.41,1.83-2.55,3.16-3.4,1.33-.85,2.85-1.5,4.54-1.95s3.47-.76,5.33-.94c2.18-.22,3.93-.43,5.27-.62,1.33-.19,2.31-.49,2.93-.91s.93-1.03.93-1.83v-.17c0-1.08-.23-1.99-.67-2.73-.45-.74-1.12-1.31-2-1.7-.89-.39-1.96-.59-3.21-.59s-2.43.2-3.4.59c-.97.39-1.75.91-2.36,1.57-.6.65-1.05,1.38-1.35,2.19l-9.25-1.51c.65-2.2,1.73-4.06,3.23-5.59s3.37-2.69,5.6-3.5c2.23-.81,4.75-1.21,7.55-1.21,2.02,0,3.98.24,5.89.72,1.91.48,3.62,1.23,5.13,2.24,1.51,1.01,2.71,2.33,3.6,3.95.89,1.63,1.33,3.57,1.33,5.84v25.34h-9.56v-5.22h-.34c-.6,1.17-1.41,2.19-2.42,3.08-1.01.89-2.23,1.59-3.65,2.1-1.43.52-3.07.77-4.93.77ZM637.08,128.04c1.59,0,2.99-.31,4.19-.94,1.2-.63,2.14-1.48,2.81-2.56s1.01-2.28,1.01-3.6v-4.07c-.29.23-.74.43-1.35.61-.6.18-1.28.34-2.02.47-.74.13-1.47.26-2.19.37s-1.36.2-1.92.27c-1.24.18-2.32.47-3.26.87s-1.67.94-2.19,1.6c-.52.66-.77,1.51-.77,2.54,0,.97.25,1.78.74,2.44.49.66,1.17,1.16,2.02,1.5s1.83.5,2.93.5Z"/>
        <path class="cls-1" d="M673.56,84.26v50.14h-10.1v-50.14h10.1Z"/>
        <path class="cls-1" d="M686.91,91.86c-1.53,0-2.83-.5-3.9-1.51-1.08-1.01-1.62-2.23-1.62-3.67s.54-2.66,1.62-3.67c1.08-1.01,2.38-1.51,3.9-1.51s2.83.5,3.92,1.51c1.09,1.01,1.63,2.23,1.63,3.67s-.54,2.66-1.63,3.67c-1.09,1.01-2.4,1.51-3.92,1.51ZM681.86,134.4v-37.62h10.1v37.62h-10.1Z"/>
        <path class="cls-1" d="M715.21,135.14c-3.03,0-5.71-.43-8.04-1.3-2.33-.86-4.24-2.12-5.72-3.77-1.48-1.65-2.43-3.64-2.86-5.97l9.39-1.62c.49,1.75,1.36,3.06,2.59,3.94,1.23.88,2.88,1.31,4.95,1.31,1.93,0,3.45-.36,4.56-1.09,1.11-.73,1.67-1.65,1.67-2.78,0-.99-.4-1.79-1.19-2.42-.8-.63-2.01-1.11-3.65-1.45l-6.49-1.35c-3.63-.74-6.35-2-8.15-3.79-1.79-1.78-2.69-4.08-2.69-6.88,0-2.42.66-4.5,1.99-6.24,1.32-1.74,3.16-3.08,5.52-4.02,2.36-.94,5.13-1.41,8.31-1.41,2.96,0,5.53.41,7.71,1.23,2.18.82,3.94,1.98,5.28,3.48,1.35,1.5,2.24,3.28,2.69,5.32l-8.95,1.58c-.38-1.28-1.12-2.33-2.21-3.15-1.09-.82-2.55-1.23-4.39-1.23-1.66,0-3.05.35-4.17,1.04-1.12.7-1.68,1.63-1.68,2.79,0,.94.37,1.74,1.09,2.39s1.98,1.16,3.75,1.51l6.76,1.35c3.63.74,6.34,1.95,8.11,3.62,1.77,1.67,2.66,3.85,2.66,6.54,0,2.47-.72,4.63-2.15,6.48-1.44,1.85-3.42,3.29-5.94,4.32-2.52,1.03-5.43,1.55-8.73,1.55Z"/>
        <path class="cls-1" d="M757.26,96.78v7.71h-22.31v-7.71h22.31ZM740.14,87.83h10.1v35.57c0,1.19.26,2.07.79,2.64.53.57,1.41.86,2.64.86.38,0,.92-.05,1.62-.15.7-.1,1.22-.2,1.58-.29l1.45,7.57c-1.12.34-2.24.57-3.35.71-1.11.13-2.17.2-3.18.2-3.77,0-6.65-.92-8.65-2.76-2-1.84-2.99-4.48-2.99-7.91v-36.45Z"/>
      </g>
      <g>
        <path class="cls-3" d="M305,182.12v-21.49h3.29v18.66h9.73v2.83h-13.02Z"/>
        <path class="cls-3" d="M328.09,182.46c-1.51,0-2.83-.35-3.96-1.04-1.13-.69-2.01-1.66-2.63-2.91-.63-1.25-.94-2.7-.94-4.36s.31-3.14.94-4.39c.62-1.26,1.5-2.23,2.63-2.92,1.13-.69,2.45-1.04,3.96-1.04s2.84.35,3.97,1.04c1.13.69,2.01,1.67,2.63,2.92.62,1.25.94,2.72.94,4.39s-.31,3.11-.94,4.36c-.62,1.25-1.5,2.22-2.63,2.91-1.13.69-2.45,1.04-3.97,1.04ZM328.09,179.77c.98,0,1.79-.26,2.43-.77.64-.51,1.12-1.2,1.43-2.05.31-.85.47-1.79.47-2.81s-.16-1.97-.47-2.83c-.31-.86-.79-1.55-1.43-2.06-.64-.51-1.45-.77-2.43-.77s-1.77.26-2.41.77c-.63.51-1.11,1.2-1.42,2.06-.31.86-.47,1.8-.47,2.84s.16,1.96.47,2.81c.31.85.79,1.53,1.42,2.05.63.51,1.44.77,2.41.77Z"/>
        <path class="cls-3" d="M345.78,182.46c-1.52,0-2.84-.35-3.97-1.04-1.12-.69-2-1.66-2.62-2.91-.63-1.25-.94-2.7-.94-4.36s.31-3.14.94-4.39c.62-1.26,1.5-2.23,2.62-2.92,1.13-.69,2.45-1.04,3.97-1.04.84,0,1.62.11,2.35.32.73.22,1.39.53,1.98.94.59.41,1.09.91,1.5,1.5.41.59.71,1.26.92,2l-3.01.72c-.11-.41-.27-.79-.49-1.13-.22-.34-.49-.64-.8-.89-.31-.25-.67-.44-1.08-.58-.41-.13-.86-.2-1.35-.2-.97,0-1.78.26-2.42.77-.64.51-1.12,1.2-1.43,2.06-.31.86-.47,1.8-.47,2.84s.16,1.97.47,2.82c.31.85.79,1.53,1.43,2.04.64.51,1.44.76,2.42.76.5,0,.96-.07,1.37-.21.41-.14.78-.34,1.11-.59.33-.25.6-.56.82-.92.22-.36.38-.76.48-1.19l3,.72c-.19.76-.5,1.44-.91,2.04-.41.6-.92,1.11-1.51,1.54-.59.42-1.26.74-2,.97s-1.53.33-2.38.33Z"/>
        <path class="cls-3" d="M360.71,182.49c-1.02,0-1.94-.19-2.77-.57-.83-.38-1.48-.93-1.96-1.67-.48-.73-.72-1.62-.72-2.68,0-.91.18-1.66.53-2.25.35-.59.83-1.05,1.43-1.4.6-.35,1.27-.6,2-.78.74-.17,1.48-.3,2.24-.39.95-.12,1.73-.21,2.32-.28.6-.07,1.04-.19,1.32-.36.28-.17.43-.44.43-.81v-.09c0-.6-.12-1.11-.35-1.53s-.57-.73-1.03-.96c-.46-.23-1.03-.34-1.71-.34s-1.31.11-1.81.32c-.5.22-.91.49-1.23.83-.31.34-.55.69-.7,1.05l-2.99-.78c.37-.96.89-1.74,1.57-2.32.68-.59,1.47-1.01,2.35-1.28s1.8-.4,2.74-.4c.65,0,1.35.08,2.08.23.73.15,1.42.43,2.06.84s1.17.97,1.57,1.7.6,1.68.6,2.86v10.7h-3.07v-2.21h-.16c-.21.41-.52.82-.94,1.21-.41.4-.93.72-1.57.97-.63.25-1.38.38-2.26.38ZM361.41,179.93c.87,0,1.61-.17,2.22-.5s1.09-.78,1.41-1.34.49-1.15.49-1.77v-2.06c-.12.12-.33.22-.66.31-.32.09-.69.17-1.1.25-.41.07-.81.13-1.2.18s-.7.09-.95.12c-.6.08-1.14.21-1.64.39-.49.18-.89.44-1.18.78-.29.34-.44.78-.44,1.34,0,.51.13.94.4,1.28.26.35.62.61,1.07.78.45.17.98.26,1.57.26Z"/>
        <path class="cls-3" d="M375.99,160.63v21.49h-3.17v-21.49h3.17Z"/>
        <path class="cls-3" d="M387.84,182.12v-16.12h3.07v2.6h.17c.3-.88.82-1.58,1.56-2.08.74-.5,1.58-.75,2.52-.75.2,0,.43,0,.69.02.26.01.48.04.65.07v3.03c-.12-.04-.34-.08-.66-.12s-.66-.06-.99-.06c-.73,0-1.39.15-1.98.46-.59.31-1.04.73-1.37,1.28-.33.54-.49,1.17-.49,1.88v9.79h-3.17Z"/>
        <path class="cls-3" d="M405.5,182.46c-1.59,0-2.96-.34-4.11-1.02s-2.04-1.64-2.66-2.88c-.62-1.24-.93-2.7-.93-4.37s.31-3.11.92-4.37c.61-1.26,1.47-2.24,2.59-2.95,1.12-.71,2.42-1.06,3.92-1.06.92,0,1.81.15,2.67.45.86.3,1.62.78,2.31,1.42s1.22,1.48,1.62,2.5c.4,1.02.6,2.27.6,3.73v1.12h-12.85v-2.37h11.22l-1.49.78c0-.99-.15-1.86-.46-2.62-.31-.76-.76-1.34-1.36-1.77-.6-.42-1.35-.63-2.26-.63s-1.66.22-2.29.65c-.63.43-1.12,1-1.45,1.71-.33.71-.5,1.48-.5,2.32v1.62c0,1.11.19,2.04.57,2.81.38.76.91,1.34,1.59,1.73.68.39,1.48.58,2.38.58.6,0,1.13-.08,1.62-.25.48-.17.9-.42,1.25-.76.35-.34.62-.76.8-1.26l2.99.71c-.26.83-.7,1.56-1.31,2.19-.61.63-1.37,1.13-2.28,1.48-.91.35-1.94.53-3.09.53Z"/>
        <path class="cls-3" d="M421.54,182.46c-1.16,0-2.2-.17-3.11-.5-.91-.34-1.65-.83-2.23-1.49-.58-.66-.97-1.46-1.16-2.42l2.99-.62c.22.84.63,1.46,1.24,1.86.61.4,1.37.61,2.31.61,1.02,0,1.83-.21,2.44-.64.61-.43.91-.94.91-1.54,0-.52-.18-.95-.55-1.28-.37-.34-.94-.59-1.71-.75l-2.71-.62c-1.5-.34-2.62-.87-3.35-1.62s-1.1-1.69-1.1-2.84c0-.96.27-1.8.81-2.52s1.27-1.28,2.21-1.68c.93-.4,2.01-.6,3.23-.6s2.16.17,2.99.5c.83.34,1.5.81,2.01,1.41.51.6.88,1.31,1.1,2.1l-2.84.62c-.2-.57-.55-1.07-1.05-1.49-.5-.43-1.23-.64-2.18-.64-.88,0-1.61.2-2.19.59-.59.4-.88.9-.88,1.5,0,.54.19.97.58,1.31.39.33,1.03.6,1.91.8l2.6.58c1.49.34,2.6.87,3.32,1.59.72.72,1.08,1.65,1.08,2.77,0,.98-.28,1.85-.84,2.6-.56.76-1.34,1.35-2.34,1.77-.99.43-2.15.64-3.47.64Z"/>
        <path class="cls-3" d="M433.11,163.53c-.55,0-1.02-.18-1.41-.55-.39-.37-.58-.81-.58-1.32s.19-.98.58-1.34c.39-.37.86-.55,1.41-.55s1.02.18,1.41.55c.39.37.59.81.59,1.34s-.2.96-.59,1.33c-.4.37-.87.55-1.41.55ZM431.51,182.12v-16.12h3.17v16.12h-3.17Z"/>
        <path class="cls-3" d="M441.98,160.63v21.49h-3.17v-21.49h3.17Z"/>
        <path class="cls-3" d="M447.7,163.53c-.55,0-1.02-.18-1.41-.55-.39-.37-.58-.81-.58-1.32s.19-.98.58-1.34c.39-.37.86-.55,1.41-.55s1.02.18,1.41.55c.39.37.59.81.59,1.34s-.2.96-.59,1.33c-.4.37-.87.55-1.41.55ZM446.1,182.12v-16.12h3.17v16.12h-3.17Z"/>
        <path class="cls-3" d="M460.35,182.46c-1.59,0-2.96-.34-4.11-1.02s-2.04-1.64-2.66-2.88c-.62-1.24-.93-2.7-.93-4.37s.31-3.11.92-4.37c.61-1.26,1.47-2.24,2.59-2.95,1.12-.71,2.42-1.06,3.92-1.06.92,0,1.81.15,2.67.45.86.3,1.62.78,2.31,1.42s1.22,1.48,1.62,2.5c.4,1.02.6,2.27.6,3.73v1.12h-12.85v-2.37h11.22l-1.49.78c0-.99-.15-1.86-.46-2.62-.31-.76-.76-1.34-1.36-1.77-.6-.42-1.35-.63-2.26-.63s-1.66.22-2.29.65c-.63.43-1.12,1-1.45,1.71-.33.71-.5,1.48-.5,2.32v1.62c0,1.11.19,2.04.57,2.81.38.76.91,1.34,1.59,1.73.68.39,1.48.58,2.38.58.6,0,1.13-.08,1.62-.25.48-.17.9-.42,1.25-.76.35-.34.62-.76.8-1.26l2.99.71c-.26.83-.7,1.56-1.31,2.19-.61.63-1.37,1.13-2.28,1.48-.91.35-1.94.53-3.09.53Z"/>
        <path class="cls-3" d="M473.77,172.58v9.55h-3.17v-16.12h3.03l.03,3.95h-.33c.47-1.44,1.15-2.5,2.05-3.16.9-.66,1.98-1,3.25-1,1.1,0,2.05.23,2.87.69s1.46,1.14,1.92,2.04c.46.9.69,2.02.69,3.35v10.24h-3.17v-9.85c0-1.16-.3-2.07-.91-2.73-.61-.65-1.44-.98-2.5-.98-.71,0-1.35.16-1.92.47-.57.31-1.01.77-1.34,1.36-.33.6-.49,1.32-.49,2.18Z"/>
        <path class="cls-3" d="M495,182.46c-1.52,0-2.84-.35-3.97-1.04-1.12-.69-2-1.66-2.62-2.91-.63-1.25-.94-2.7-.94-4.36s.31-3.14.94-4.39c.62-1.26,1.5-2.23,2.62-2.92,1.13-.69,2.45-1.04,3.97-1.04.84,0,1.62.11,2.35.32.73.22,1.39.53,1.98.94.59.41,1.09.91,1.5,1.5.41.59.71,1.26.92,2l-3.01.72c-.11-.41-.27-.79-.49-1.13-.22-.34-.49-.64-.8-.89-.31-.25-.67-.44-1.08-.58-.41-.13-.86-.2-1.35-.2-.97,0-1.78.26-2.42.77-.64.51-1.12,1.2-1.43,2.06-.31.86-.47,1.8-.47,2.84s.16,1.97.47,2.82c.31.85.79,1.53,1.43,2.04.64.51,1.44.76,2.42.76.5,0,.96-.07,1.37-.21.41-.14.78-.34,1.11-.59.33-.25.6-.56.82-.92.22-.36.38-.76.48-1.19l3,.72c-.19.76-.5,1.44-.91,2.04-.41.6-.92,1.11-1.51,1.54-.59.42-1.26.74-2,.97s-1.53.33-2.38.33Z"/>
        <path class="cls-3" d="M512.07,182.46c-1.59,0-2.96-.34-4.11-1.02s-2.04-1.64-2.66-2.88c-.62-1.24-.93-2.7-.93-4.37s.31-3.11.92-4.37c.61-1.26,1.47-2.24,2.59-2.95,1.12-.71,2.42-1.06,3.92-1.06.92,0,1.81.15,2.67.45.86.3,1.62.78,2.31,1.42s1.22,1.48,1.62,2.5c.4,1.02.6,2.27.6,3.73v1.12h-12.85v-2.37h11.22l-1.49.78c0-.99-.15-1.86-.46-2.62-.31-.76-.76-1.34-1.36-1.77-.6-.42-1.35-.63-2.26-.63s-1.66.22-2.29.65c-.63.43-1.12,1-1.45,1.71-.33.71-.5,1.48-.5,2.32v1.62c0,1.11.19,2.04.57,2.81.38.76.91,1.34,1.59,1.73.68.39,1.48.58,2.38.58.6,0,1.13-.08,1.62-.25.48-.17.9-.42,1.25-.76.35-.34.62-.76.8-1.26l2.99.71c-.26.83-.7,1.56-1.31,2.19-.61.63-1.37,1.13-2.28,1.48-.91.35-1.94.53-3.09.53Z"/>
        <path class="cls-2" d="M534.45,153.71v35.34h-2.87v-35.34h2.87Z"/>
        <path class="cls-3" d="M557.12,182.41c-1.94,0-3.65-.45-5.11-1.34-1.47-.89-2.61-2.17-3.43-3.81-.82-1.65-1.23-3.6-1.23-5.86s.42-4.26,1.25-5.91c.83-1.65,1.97-2.92,3.43-3.81,1.45-.89,3.1-1.33,4.96-1.33,1.15,0,2.23.17,3.24.51,1.01.34,1.9.83,2.7,1.46.79.63,1.45,1.38,1.96,2.25.51.87.86,1.82,1.03,2.86h-3.37c-.19-.62-.46-1.19-.79-1.7-.34-.5-.74-.93-1.2-1.29-.47-.36-.99-.63-1.59-.82-.59-.19-1.24-.28-1.94-.28-1.21,0-2.3.31-3.27.92-.97.62-1.73,1.52-2.29,2.72-.56,1.2-.84,2.66-.84,4.39s.28,3.19.84,4.38c.56,1.19,1.33,2.1,2.32,2.72.98.62,2.11.93,3.37.93,1.15,0,2.16-.23,3.02-.7.86-.47,1.53-1.13,2.01-1.99.48-.86.71-1.88.71-3.05l.85.14h-6.12v-2.71h8.48v2.47c0,1.81-.39,3.37-1.16,4.7-.77,1.32-1.83,2.34-3.18,3.07-1.35.72-2.89,1.08-4.63,1.08Z"/>
        <path class="cls-3" d="M572.95,160.63v21.49h-3.17v-21.49h3.17Z"/>
        <path class="cls-3" d="M583.85,182.46c-1.51,0-2.83-.35-3.96-1.04-1.13-.69-2.01-1.66-2.63-2.91-.63-1.25-.94-2.7-.94-4.36s.31-3.14.94-4.39c.62-1.26,1.5-2.23,2.63-2.92,1.13-.69,2.45-1.04,3.96-1.04s2.84.35,3.97,1.04c1.13.69,2.01,1.67,2.63,2.92.62,1.25.94,2.72.94,4.39s-.31,3.11-.94,4.36-1.5,2.22-2.63,2.91c-1.13.69-2.45,1.04-3.97,1.04ZM583.85,179.77c.98,0,1.79-.26,2.43-.77.64-.51,1.12-1.2,1.43-2.05.31-.85.47-1.79.47-2.81s-.16-1.97-.47-2.83c-.31-.86-.79-1.55-1.43-2.06-.64-.51-1.45-.77-2.43-.77s-1.77.26-2.41.77c-.63.51-1.11,1.2-1.42,2.06-.31.86-.47,1.8-.47,2.84s.16,1.96.47,2.81c.31.85.79,1.53,1.42,2.05.63.51,1.44.77,2.41.77Z"/>
        <path class="cls-3" d="M602.77,182.44c-.97,0-1.77-.17-2.39-.5-.62-.33-1.11-.72-1.46-1.16-.35-.44-.62-.84-.82-1.18h-.26v2.52h-3.09v-21.49h3.17v7.99h.17c.19-.34.46-.73.8-1.17.34-.44.82-.83,1.43-1.16.61-.33,1.42-.5,2.43-.5,1.29,0,2.44.33,3.46.98,1.01.65,1.81,1.6,2.4,2.84.59,1.24.88,2.73.88,4.48s-.29,3.22-.87,4.46c-.58,1.25-1.37,2.2-2.39,2.87-1.01.67-2.18,1-3.48,1ZM602.06,179.74c.92,0,1.7-.25,2.32-.75.62-.5,1.09-1.18,1.41-2.03.31-.86.47-1.82.47-2.88s-.16-2.01-.47-2.85c-.31-.84-.78-1.51-1.4-2-.62-.49-1.4-.74-2.33-.74s-1.67.23-2.29.7c-.62.47-1.1,1.12-1.41,1.95-.32.83-.48,1.81-.48,2.93s.16,2.1.48,2.95c.32.85.8,1.52,1.42,2s1.38.72,2.28.72Z"/>
        <path class="cls-3" d="M617.68,182.49c-1.02,0-1.94-.19-2.77-.57-.83-.38-1.48-.93-1.96-1.67-.48-.73-.72-1.62-.72-2.68,0-.91.18-1.66.53-2.25.35-.59.83-1.05,1.43-1.4.6-.35,1.27-.6,2-.78.74-.17,1.48-.3,2.24-.39.95-.12,1.73-.21,2.32-.28.6-.07,1.04-.19,1.32-.36.28-.17.43-.44.43-.81v-.09c0-.6-.12-1.11-.35-1.53s-.57-.73-1.03-.96c-.46-.23-1.03-.34-1.71-.34s-1.31.11-1.81.32c-.5.22-.91.49-1.23.83-.31.34-.55.69-.7,1.05l-2.99-.78c.37-.96.89-1.74,1.57-2.32.68-.59,1.47-1.01,2.35-1.28s1.8-.4,2.74-.4c.65,0,1.35.08,2.08.23.73.15,1.42.43,2.06.84s1.17.97,1.57,1.7.6,1.68.6,2.86v10.7h-3.07v-2.21h-.16c-.21.41-.52.82-.94,1.21-.41.4-.93.72-1.57.97-.63.25-1.38.38-2.26.38ZM618.38,179.93c.87,0,1.61-.17,2.22-.5s1.09-.78,1.41-1.34.49-1.15.49-1.77v-2.06c-.12.12-.33.22-.66.31-.32.09-.69.17-1.1.25-.41.07-.81.13-1.2.18s-.7.09-.95.12c-.6.08-1.14.21-1.64.39-.49.18-.89.44-1.18.78-.29.34-.44.78-.44,1.34,0,.51.13.94.4,1.28.26.35.62.61,1.07.78.45.17.98.26,1.57.26Z"/>
        <path class="cls-3" d="M632.96,160.63v21.49h-3.17v-21.49h3.17Z"/>
        <path class="cls-3" d="M648.35,182.12l-4.85-16.12h3.35l1.77,6.68c.26,1,.54,2.11.84,3.34.3,1.23.59,2.61.87,4.15h-.46c.28-1.48.57-2.84.87-4.07s.58-2.37.85-3.42l1.77-6.68h3.17l1.75,6.68c.27,1.02.55,2.14.84,3.37.29,1.23.58,2.6.86,4.11h-.48c.29-1.49.58-2.85.87-4.08s.57-2.37.84-3.4l1.77-6.68h3.38l-4.86,16.12h-3.19l-1.99-6.94c-.2-.7-.4-1.43-.59-2.2-.19-.76-.38-1.55-.56-2.34-.18-.8-.37-1.59-.56-2.38h.65c-.18.78-.37,1.57-.55,2.37-.19.8-.38,1.59-.57,2.37-.19.77-.39,1.5-.59,2.18l-1.99,6.94h-3.19Z"/>
        <path class="cls-3" d="M670.75,163.53c-.55,0-1.02-.18-1.41-.55-.39-.37-.58-.81-.58-1.32s.19-.98.58-1.34c.39-.37.86-.55,1.41-.55s1.02.18,1.41.55c.39.37.59.81.59,1.34s-.2.96-.59,1.33c-.4.37-.87.55-1.41.55ZM669.15,182.12v-16.12h3.17v16.12h-3.17Z"/>
        <path class="cls-3" d="M682.23,182.46c-1.16,0-2.2-.17-3.11-.5-.91-.34-1.65-.83-2.23-1.49-.58-.66-.97-1.46-1.16-2.42l2.99-.62c.22.84.63,1.46,1.24,1.86.61.4,1.37.61,2.31.61,1.02,0,1.83-.21,2.44-.64.61-.43.91-.94.91-1.54,0-.52-.18-.95-.55-1.28-.37-.34-.94-.59-1.71-.75l-2.71-.62c-1.5-.34-2.62-.87-3.35-1.62s-1.1-1.69-1.1-2.84c0-.96.27-1.8.81-2.52s1.27-1.28,2.21-1.68c.93-.4,2.01-.6,3.23-.6s2.16.17,2.99.5c.83.34,1.5.81,2.01,1.41.51.6.88,1.31,1.1,2.1l-2.84.62c-.2-.57-.55-1.07-1.05-1.49-.5-.43-1.23-.64-2.18-.64-.88,0-1.61.2-2.19.59-.59.4-.88.9-.88,1.5,0,.54.19.97.58,1.31.39.33,1.03.6,1.91.8l2.6.58c1.49.34,2.6.87,3.32,1.59s1.08,1.65,1.08,2.77c0,.98-.28,1.85-.84,2.6-.56.76-1.34,1.35-2.34,1.77-.99.43-2.15.64-3.47.64Z"/>
        <path class="cls-3" d="M698.21,182.44c-1.31,0-2.47-.33-3.49-1-1.02-.67-1.82-1.62-2.39-2.87-.58-1.24-.87-2.73-.87-4.46s.29-3.25.88-4.48c.59-1.24,1.39-2.19,2.41-2.84s2.17-.98,3.46-.98c1,0,1.81.17,2.42.5.61.33,1.09.72,1.43,1.16.35.44.61.83.79,1.17h.17v-7.99h3.17v21.49h-3.09v-2.52h-.26c-.18.35-.45.74-.81,1.18-.36.44-.84.83-1.46,1.16-.62.33-1.41.5-2.38.5ZM698.9,179.74c.9,0,1.67-.24,2.29-.72.62-.48,1.09-1.15,1.41-2,.32-.85.48-1.83.48-2.95s-.16-2.1-.48-2.93c-.32-.83-.79-1.48-1.41-1.95-.62-.47-1.39-.7-2.3-.7s-1.71.25-2.33.74c-.62.49-1.09,1.16-1.4,2-.31.84-.47,1.79-.47,2.85s.16,2.03.48,2.88c.32.86.79,1.53,1.41,2.03.62.5,1.39.75,2.31.75Z"/>
        <path class="cls-3" d="M717.1,182.46c-1.51,0-2.83-.35-3.96-1.04-1.13-.69-2.01-1.66-2.63-2.91-.63-1.25-.94-2.7-.94-4.36s.31-3.14.94-4.39c.62-1.26,1.5-2.23,2.63-2.92,1.13-.69,2.45-1.04,3.96-1.04s2.84.35,3.97,1.04c1.13.69,2.01,1.67,2.63,2.92.62,1.25.94,2.72.94,4.39s-.31,3.11-.94,4.36c-.62,1.25-1.5,2.22-2.63,2.91-1.13.69-2.45,1.04-3.97,1.04ZM717.1,179.77c.98,0,1.79-.26,2.43-.77.64-.51,1.12-1.2,1.43-2.05.31-.85.47-1.79.47-2.81s-.16-1.97-.47-2.83c-.31-.86-.79-1.55-1.43-2.06-.64-.51-1.45-.77-2.43-.77s-1.77.26-2.41.77c-.63.51-1.11,1.2-1.42,2.06-.31.86-.47,1.8-.47,2.84s.16,1.96.47,2.81c.31.85.79,1.53,1.42,2.05.63.51,1.44.77,2.41.77Z"/>
        <path class="cls-3" d="M728.01,182.12v-16.12h3.01l.09,3.74h-.24c.23-.91.59-1.66,1.07-2.25s1.04-1.03,1.69-1.32c.64-.29,1.32-.44,2.02-.44,1.17,0,2.12.36,2.84,1.09.72.73,1.21,1.74,1.46,3.04h-.4c.21-.88.58-1.63,1.1-2.25s1.15-1.08,1.88-1.4c.74-.32,1.52-.48,2.36-.48.95,0,1.81.21,2.59.62.77.41,1.39,1.03,1.84,1.85s.68,1.84.68,3.06v10.87h-3.17v-10.56c0-1.08-.3-1.86-.9-2.34-.6-.48-1.31-.72-2.13-.72-.66,0-1.24.14-1.72.42s-.85.67-1.11,1.16c-.26.5-.39,1.07-.39,1.71v10.33h-3.13v-10.76c0-.87-.28-1.56-.83-2.08-.55-.52-1.26-.78-2.11-.78-.59,0-1.13.14-1.64.41-.5.27-.91.68-1.21,1.21-.3.53-.45,1.19-.45,1.97v10.02h-3.17Z"/>
      </g>
      <g id="aureo_isotipo" data-name="aureo isotipo">
        <circle class="cls-3" cx="145.06" cy="141.18" r="136.18"/>
        <path class="cls-2" d="M19.49,197.97l61.17-88.47c.66-.95,1.87-1.33,2.95-.93l.27.1c1.08.4,1.76,1.48,1.64,2.63l-15.44,143.06s-30.68-15.75-50.58-56.38Z"/>
        <path class="cls-2" d="M80.21,259.36l58.87-171.44c.55-1.58,2.04-2.63,3.71-2.63h1.07c1.67,0,3.16,1.05,3.71,2.62l59.79,172.28s-59,36.76-127.15-.83Z"/>
        <path class="cls-2" d="M217.24,254l-16.27-142.57c-.14-1.3.62-2.54,1.84-3l.25-.09c1.23-.46,2.61-.03,3.36,1.05l61.26,89.06s-10.5,33.44-50.44,55.55Z"/>
        <circle class="cls-4" cx="82.54" cy="68.28" r="16.17"/>
        <circle class="cls-4" cx="204.28" cy="68.28" r="16.17"/>
        <circle class="cls-4" cx="143.86" cy="47.97" r="21.66"/>
        <ellipse class="cls-5" cx="144.29" cy="141.18" rx="139.29" ry="136.18"/>
      </g>
    </g>
  </g>
</svg>